<svg xmlns="http://www.w3.org/2000/svg" viewBox="0 0 59 59"><defs><style>.cls-1{fill:#fff;stroke:#c6c6c6;stroke-miterlimit:10;stroke-width:3px;}.cls-2{fill:#f0563a;}</style></defs><title>Quick start_1</title><g id="Layer_2" data-name="Layer 2"><g id="Layer_1-2" data-name="Layer 1"><circle class="cls-1" cx="29.5" cy="29.5" r="28"/><path class="cls-2" d="M37.7,22.2a.84.84,0,0,1,.61.27.67.67,0,0,1,.13.79L28.78,43.91a.79.79,0,0,1-.75.45l-.25,0a.76.76,0,0,1-.46-.34.68.68,0,0,1-.08-.54L30.77,29l-7.25,1.8-.21,0a.83.83,0,0,1-.55-.2.67.67,0,0,1-.23-.7l3.59-14.73a.76.76,0,0,1,.29-.41.81.81,0,0,1,.5-.16h5.86a.79.79,0,0,1,.57.22.71.71,0,0,1,.23.53.73.73,0,0,1-.09.32L30.41,24l7.07-1.75.21,0Z"/></g></g></svg>